<svg width="21" height="21" viewBox="0 0 21 21" fill="none" xmlns="http://www.w3.org/2000/svg">
<path fill-rule="evenodd" clip-rule="evenodd" d="M20.3966 2.37508C20.7871 1.98455 20.7871 1.35139 20.3966 0.960862C20.0061 0.570338 19.3729 0.570338 18.9824 0.960862L10.9288 9.01443L2.87525 0.960862C2.48472 0.570338 1.85156 0.570338 1.46103 0.960862C1.07051 1.35139 1.07051 1.98455 1.46103 2.37508L9.51461 10.4286L1.46037 18.4829C1.06985 18.8734 1.06985 19.5066 1.46037 19.8971C1.8509 20.2876 2.48406 20.2876 2.87459 19.8971L10.9288 11.8429L18.9831 19.8971C19.3736 20.2876 20.0067 20.2876 20.3973 19.8971C20.7878 19.5066 20.7878 18.8734 20.3973 18.4829L12.343 10.4286L20.3966 2.37508Z" fill="#1C5A96"/>
</svg>
