<svg width="24" height="24" viewBox="0 0 24 24" fill="none" xmlns="http://www.w3.org/2000/svg">
<path d="M22 22H21V13.999C22.104 13.995 23 13.097 23 11.992C23 11.256 22.598 10.58 21.953 10.23L13.349 5.537C13.237 5.476 13.116 5.444 12.999 5.4V4.38L15.634 2.745C16.129 2.415 16.118 1.685 15.614 1.37L13.152 0.215C12.927 0.074 12.667 0 12.401 0C11.619 0 10.984 0.634 10.984 1.417V5H10.999V5.4C10.882 5.445 10.761 5.476 10.649 5.537L2.047 10.23C1.401 10.581 1 11.255 1 11.992C1 13.097 1.897 13.995 3 13.999V22H2C1.448 22 1 22.447 1 23C1 23.553 1.448 24 2 24H22C22.553 24 23 23.553 23 23C23 22.447 22.553 22 22 22ZM11 14V22H9V14H11ZM13 14H15V22H13V14ZM17 14H19V22H17V14ZM5 14H7V22H5V14Z" fill="#1C5A96"/>
</svg>
