<svg width="24" height="24" viewBox="0 0 24 24" fill="none" xmlns="http://www.w3.org/2000/svg">
<g clip-path="url(#clip0_5194_487)">
<path d="M8 0H4.5C2.015 0 0 2.015 0 4.5V8C0 9.105 0.895 10 2 10H8C9.105 10 10 9.105 10 8V2C10 0.895 9.105 0 8 0ZM14 10H20C21.105 10 22 9.105 22 8V4.5C22 2.015 19.985 0 17.5 0H14C12.895 0 12 0.895 12 2V8C12 9.105 12.895 10 14 10ZM8 12H2C0.895 12 0 12.895 0 14V17.5C0 19.985 2.015 22 4.5 22H8C9.105 22 10 21.105 10 20V14C10 12.895 9.105 12 8 12ZM23.707 22.293L21.167 19.753C21.691 18.962 22 18.017 22 17C22 14.243 19.757 12 17 12C14.243 12 12 14.243 12 17C12 19.757 14.243 22 17 22C18.017 22 18.962 21.691 19.753 21.167L22.293 23.707C22.488 23.902 22.744 24 23 24C23.256 24 23.512 23.902 23.707 23.707C24.098 23.316 24.098 22.684 23.707 22.293Z" fill="#1C5A96"/>
</g>
<defs>
<clipPath id="clip0_5194_487">
<rect width="24" height="24" fill="white"/>
</clipPath>
</defs>
</svg>
