<svg width="24" height="24" viewBox="0 0 24 24" fill="none" xmlns="http://www.w3.org/2000/svg">
<g clip-path="url(#clip0_5194_284)">
<path d="M20.9997 21.4999V23.9999H2.99967V21.4999C2.99967 19.0189 5.01867 16.9999 7.49967 16.9999H16.4997C18.9807 16.9999 20.9997 19.0189 20.9997 21.4999ZM6.87167 4.02691C8.40067 2.59391 10.4027 1.88591 12.5017 2.01591C16.4257 2.26991 19.5007 5.68491 19.5007 9.78991C19.5007 11.5599 18.0617 12.9989 16.2917 12.9989H13.8857C13.6417 12.1699 12.8837 11.5599 11.9757 11.5599C10.8707 11.5599 9.97567 12.4549 9.97567 13.5599C9.97567 14.6649 10.8707 15.5599 11.9757 15.5599C12.5137 15.5599 13.0007 15.3449 13.3597 14.9989H16.2917C19.1637 14.9989 21.5007 12.6619 21.5007 9.78991C21.4997 4.63391 17.6037 0.34191 12.6297 0.0209097C9.96567 -0.15209 7.43867 0.75291 5.50367 2.56891C3.71667 4.24391 2.64267 6.56491 2.51367 9.00091H4.51667C4.63967 7.09791 5.46467 5.34591 6.87167 4.02691ZM15.0997 10.9999H16.4677C16.9687 10.9999 17.4067 10.6319 17.4647 10.1339C17.5327 9.54691 17.5077 8.93191 17.3737 8.30291C16.9297 6.22391 15.2427 4.54691 13.1607 4.11891C9.62367 3.39191 6.50167 6.08891 6.50167 9.49991C6.50167 10.9689 7.08067 12.3049 8.02167 13.2919C8.13167 11.1809 9.86267 9.49891 12.0007 9.49891C13.2587 9.49891 14.3667 10.0909 15.0997 10.9989V10.9999Z" fill="#2C84B6"/>
</g>
<defs>
<clipPath id="clip0_5194_284">
<rect width="24" height="24" fill="white"/>
</clipPath>
</defs>
</svg>
