<svg width="24" height="24" viewBox="0 0 24 24" fill="none" xmlns="http://www.w3.org/2000/svg">
<g clip-path="url(#clip0_5194_277)">
<path d="M0.101 4C0.566 1.721 2.586 0 5 0H19C21.414 0 23.434 1.721 23.899 4H0.101ZM24 6V19C24 21.757 21.757 24 19 24H5C2.243 24 0 21.757 0 19V6H24ZM3 10C3 10.552 3.447 11 4 11H9C9.553 11 10 10.552 10 10C10 9.448 9.553 9 9 9H4C3.447 9 3 9.448 3 10ZM15 20C15 19.447 14.553 19 14 19H4C3.447 19 3 19.447 3 20C3 20.553 3.447 21 4 21H14C14.553 21 15 20.553 15 20ZM15 15C15 14.447 14.553 14 14 14H7C6.447 14 6 14.447 6 15C6 15.553 6.447 16 7 16H14C14.553 16 15 15.553 15 15ZM21 20C21 19.262 20.595 18.624 20 18.277V12C20 10.346 18.654 9 17 9H15.723C15.377 8.405 14.739 8 14 8C12.895 8 12 8.895 12 10C12 11.105 12.895 12 14 12C14.738 12 15.376 11.595 15.723 11H17C17.552 11 18 11.449 18 12V18.277C17.405 18.623 17 19.261 17 20C17 21.105 17.895 22 19 22C20.105 22 21 21.105 21 20Z" fill="#2C84B6"/>
</g>
<defs>
<clipPath id="clip0_5194_277">
<rect width="24" height="24" fill="white"/>
</clipPath>
</defs>
</svg>
