<svg width="24" height="24" viewBox="0 0 24 24" fill="none" xmlns="http://www.w3.org/2000/svg">
<g clip-path="url(#clip0_5194_478)">
<path d="M18.7123 11.9998H13.9993C12.8948 11.9998 11.9993 11.1044 11.9993 9.9998V5.27382C12.0021 4.34147 11.5711 3.46079 10.8333 2.89083C10.1341 2.33715 9.21732 2.1398 8.35229 2.35683C2.47276 3.81633 -1.11042 9.76585 0.349131 15.6454C1.37743 19.7879 4.7153 22.9577 8.90532 23.7708C14.6292 24.8664 20.2142 21.3077 21.6393 15.6568C21.8572 14.7907 21.6602 13.8725 21.1063 13.1718C20.5298 12.4353 19.6477 12.0034 18.7123 11.9998Z" fill="#1C5A96"/>
<path d="M23.6504 7.4458C23.4222 6.59727 23.0822 5.78282 22.6394 5.02382C21.3077 2.73923 19.1323 1.06874 16.5815 0.371805C16.4134 0.326477 16.0374 0.299805 16.0374 0.299805C15.9031 0.299852 15.3245 0.299805 14.8664 0.67082C14.1933 1.20055 14.0874 1.8028 14.0774 1.84982C14.0425 1.99729 14.0244 2.14827 14.0234 2.29982V6.99984C14.0234 8.65668 15.3666 9.99984 17.0234 9.99984H21.7424C22.3685 10.0016 22.9578 9.70438 23.3285 9.19982C23.6026 8.83021 23.7436 8.37871 23.7284 7.91882C23.7205 7.75869 23.6943 7.59998 23.6504 7.4458Z" fill="#1C5A96"/>
</g>
<defs>
<clipPath id="clip0_5194_478">
<rect width="24" height="24" fill="white"/>
</clipPath>
</defs>
</svg>
