<svg width="32" height="32" viewBox="0 0 32 32" fill="none" xmlns="http://www.w3.org/2000/svg">
<circle cx="16" cy="16" r="15.5" stroke="#323232"/>
<path fill-rule="evenodd" clip-rule="evenodd" d="M10 16C10 12.6913 12.6906 10 15.9983 10V10.0001H16.0017C19.3094 10.0001 22 12.6914 22 16C22 19.3086 19.3094 22 16.0017 22C14.7816 22 13.6497 21.6367 12.7011 21.0089L10.3949 21.7459L11.1425 19.5167C10.4232 18.529 10 17.3121 10 16ZM13.9419 12.7511C14.1182 12.7583 14.2063 12.7688 14.3227 13.0475C14.3603 13.1382 14.4119 13.2635 14.4685 13.4008C14.6296 13.7918 14.8309 14.2802 14.8622 14.3455C14.9045 14.4337 14.9469 14.5537 14.8869 14.67C14.8344 14.7816 14.788 14.8352 14.7108 14.9245C14.705 14.9312 14.699 14.9381 14.6929 14.9452C14.6552 14.989 14.6181 15.0282 14.5811 15.0674C14.5317 15.1197 14.4824 15.1719 14.4319 15.2345L14.4277 15.2395C14.3478 15.3332 14.261 15.4351 14.3615 15.6084C14.4637 15.7812 14.8163 16.3561 15.3347 16.8181C15.9499 17.3654 16.458 17.5709 16.6872 17.6636C16.7077 17.6719 16.7259 17.6792 16.7417 17.6859C16.8862 17.7459 17.0591 17.7318 17.1649 17.6189C17.2796 17.4952 17.4174 17.3018 17.5608 17.1005C17.5851 17.0665 17.6095 17.0323 17.634 16.9981C17.7538 16.8288 17.9053 16.8076 18.0641 16.8675C18.2263 16.9239 19.0833 17.3472 19.2595 17.4354C19.2955 17.4534 19.329 17.4696 19.3599 17.4844C19.4803 17.5423 19.5609 17.581 19.5945 17.64C19.6369 17.7141 19.6369 18.0633 19.4923 18.4725C19.3477 18.8816 18.7729 19.2203 18.3145 19.3191C18.0007 19.3861 17.5916 19.439 16.2128 18.8676C14.5797 18.1912 13.485 16.604 13.2624 16.2811C13.2446 16.2554 13.2324 16.2377 13.2259 16.2292C13.2235 16.2258 13.2205 16.2217 13.2171 16.2171C13.1051 16.0639 12.5137 15.255 12.5137 14.4196C12.5137 13.583 12.9268 13.163 13.1118 12.975C13.1171 12.9695 13.1223 12.9643 13.1272 12.9593C13.2718 12.8111 13.5116 12.7441 13.7409 12.7441C13.8079 12.7445 13.875 12.7468 13.9419 12.7511Z" fill="#323232"/>
</svg>
