<svg width="24" height="24" viewBox="0 0 24 24" fill="none" xmlns="http://www.w3.org/2000/svg">
<path d="M19 1H5C2.239 1 0 3.239 0 6V14C0 16.761 2.239 19 5 19H11V21H7C6.447 21 6 21.448 6 22C6 22.552 6.447 23 7 23H17C17.553 23 18 22.552 18 22C18 21.448 17.553 21 17 21H13V19H19C21.761 19 24 16.761 24 14V6C24 3.239 21.761 1 19 1ZM6.802 15.359C4.893 14.91 3.398 13.301 3.073 11.367C2.604 8.576 4.45 6.118 7 5.6V10.085C7 10.615 7.211 11.124 7.586 11.499L10.755 14.668C9.662 15.392 8.272 15.704 6.802 15.359ZM12.169 13.254L9.294 10.379C9.106 10.191 9.001 9.937 9.001 9.672V5.601C11.283 6.064 13.001 8.081 13.001 10.5C13.001 11.519 12.693 12.464 12.169 13.254ZM20.001 15H17.001C16.449 15 16.001 14.552 16.001 14C16.001 13.448 16.449 13 17.001 13H20.001C20.553 13 21.001 13.448 21.001 14C21.001 14.552 20.553 15 20.001 15ZM20.001 11H17.001C16.449 11 16.001 10.552 16.001 10C16.001 9.448 16.449 9 17.001 9H20.001C20.553 9 21.001 9.448 21.001 10C21.001 10.552 20.553 11 20.001 11ZM20.001 7H17.001C16.449 7 16.001 6.552 16.001 6C16.001 5.448 16.449 5 17.001 5H20.001C20.553 5 21.001 5.448 21.001 6C21.001 6.552 20.553 7 20.001 7Z" fill="#1C5A96"/>
</svg>
