<svg width="24" height="24" viewBox="0 0 24 24" fill="none" xmlns="http://www.w3.org/2000/svg">
<g clip-path="url(#clip0_6282_87)">
<path d="M24 12.0001C24 18.6201 18.62 24.0001 12 24.0001C5.38 24.0001 0 18.6201 0 12.0001C0 5.38005 5.38 4.94639e-05 12 4.94639e-05C12.19 4.94639e-05 12.38 4.94637e-05 12.57 0.0100495C13.4 0.0500495 14.04 0.75005 14 1.58005C13.96 2.41005 13.28 3.03005 12.43 3.01005C12.29 3.01005 12.14 3.00005 12 3.00005C7.04 3.00005 3 7.04005 3 12.0001C3 16.9601 7.04 21.0001 12 21.0001C16.96 21.0001 21 16.9601 21 12.0001C21 11.8601 21 11.7101 20.99 11.5701C20.95 10.7401 21.59 10.0401 22.42 10.0001C23.27 9.97005 23.95 10.6001 23.99 11.4301C23.99 11.6201 24 11.8101 24 12.0001ZM10.91 8.15005C11.71 7.92005 12.17 7.10005 11.95 6.30005C11.73 5.50005 10.89 5.04005 10.1 5.26005C7.1 6.11005 5.01 8.88005 5.01 12.0001C5.01 15.8601 8.15 19.0001 12.01 19.0001C15.13 19.0001 17.9 16.9101 18.75 13.9101C18.98 13.1101 18.51 12.2801 17.71 12.0601C16.91 11.8301 16.08 12.3001 15.86 13.1001C15.38 14.8101 13.79 16.0101 12.01 16.0101C9.8 16.0101 8.01 14.2201 8.01 12.0101C8.01 10.2301 9.21 8.64005 10.92 8.16005L10.91 8.15005ZM10.94 10.9401C10.35 11.5301 10.35 12.4801 10.94 13.0601C11.23 13.3501 11.62 13.5001 12 13.5001C12.38 13.5001 12.77 13.3501 13.06 13.0601L18.12 8.00005H20.5C20.9 8.00005 21.28 7.84005 21.56 7.56005L23.56 5.56005C23.99 5.13005 24.12 4.49005 23.89 3.93005C23.66 3.37005 23.11 3.00005 22.5 3.00005H21V1.50005C21 0.89005 20.63 0.350049 20.07 0.110049C19.51 -0.119951 18.86 0.0100495 18.44 0.44005L16.44 2.44005C16.16 2.72005 16 3.10005 16 3.50005V5.88005L10.94 10.9401Z" fill="#1C5A96"/>
</g>
<defs>
<clipPath id="clip0_6282_87">
<rect width="24" height="24" fill="white"/>
</clipPath>
</defs>
</svg>
