<?xml version="1.0" encoding="utf-8"?>
<!-- Generator: Adobe Illustrator 25.2.0, SVG Export Plug-In . SVG Version: 6.00 Build 0)  -->
<svg version="1.1" xmlns="http://www.w3.org/2000/svg" xmlns:xlink="http://www.w3.org/1999/xlink" x="0px" y="0px"
	 viewBox="0 0 1422 255.1" style="enable-background:new 0 0 1422 255.1;" xml:space="preserve">
<style type="text/css">
	.st0{fill:#DC0D15;}
	.st1{fill:#005FA0;}
	.st2{fill:#FFFFFF;}
</style>
<g id="Layer_3">
</g>
<g id="fonts">
</g>
<g id="logo">
	<g>
		<g>
			<g>
				<g>
					<path class="st0" d="M275.4,92.7c-4.3-31-37.5-51.2-37.5-51.2s14.7,19.4,18.7,42.2c3.5,20.2-2.2,34.2-2.2,34.2
						s-6.7-31.3-31.5-57.6c-19.6-20.8-51.6-34.4-51.6-34.4s-14.1,51,25.4,102.4c-7.4-5.2-16.3-10.2-26.7-13.7
						c-19.6-6.5-44.3-3.6-44.3-3.6s16.4,49.2,78.8,64.3c-41.2-29-53.4-54.1-53.4-54.1s12,1,31,9.6c12.5,5.7,43.8,22.8,73.8,41.1
						c-11.5-9.8-29-25.3-39.6-38C183.4,94.7,194,56,194,56s19.4,10.2,35.6,33.9C240.3,105.6,255,146,255,146S280.7,130.5,275.4,92.7
						"/>
					<path class="st0" d="M401.3,170.6c-27.6-8-54.8-10.1-54.8-10.1s15.7-3.1,34.3-4.8c29.4-2.7,55.4,5.1,55.4,5.1s-2.2,9.3-7.1,19
						c0,0,5.7-2.6,10.8-6.3c13.4-9.8,14.1-20.7,14.1-20.7s-22.9-12.6-58.2-8.7c-1,0.1-3,0.6-3,0.6s3.2-1.5,6.1-3.7
						c19.4-15.2,23.7-36.8,23.7-36.8s-25.6-3.3-45.3,1c-38.3,8.3-51.3,39.4-51.3,39.4s19.7-14.1,33.1-18.8
						c16.1-5.6,32.9-5.2,32.9-5.2s-14.8,21.7-43.6,30.6c-19.5,6-41.2,7.8-41.2,7.8s11.7-47.7,69.5-62.2c34.9-8.7,85.6,1,85.6,1
						s-60.2-31-113.5-6C385.2,52.9,357.9,0,357.9,0s-36.1,7.1-58.7,27.2C280,44.3,274.3,67.6,277.8,81c0,0,8.3-16.2,26.2-33.6
						c15.3-14.9,33.8-24.8,33.8-24.8s6.5,37.9-9.9,76.1c-26.1,60.6-60.1,78.2-60.1,78.2s63.3-7.1,102.7,2.6
						c33.1,8.2,49.3,19.9,49.3,19.9s-48.2,33.3-126.8,16.6c-52.5-11.2-78.5-31.7-78.5-31.7s39.1,40.1,102,51.2
						C419.3,253.8,453,204.5,453,204.5S433.2,179.9,401.3,170.6"/>
					<path class="st1" d="M130.5,242.1c26.1-0.4,54.7-8.2,54.7-8.2S169.3,244.7,162,248c-7.9,3.5-15.7,8.7-33.1,6.7
						c-24.6-2.9-40.2-13.6-52-21.5C76.9,233.2,91.8,242.7,130.5,242.1"/>
					<path class="st1" d="M120.8,217.4c-35-11.9-55.2-29.9-68.7-46.3c0,0,33.9,11.9,69.5,18.4c29.3,5.3,68.6,17.5,88.8,35
						c-15.4-28-48.4-47.9-91.2-53.4C26.8,159.3,4.3,136.5,0,132.5c-0.1,0,0,0,0,0c4.6,13.8,27.2,73.2,85.2,92.1
						c47.1,15.4,104.9,2.6,104.9,2.6S161.5,231.2,120.8,217.4"/>
				</g>
			</g>
		</g>
		<g>
			<path d="M528.7,103.2c3.3,0,6.6-0.1,8.5-1.1c2.5-1.4,3.8-5.8,4.9-10.3c1.5-5.6,4.9-9.5,13.8-7.8V89c-4.3-0.3-5.9,0.5-7.2,4.9
				c-1.3,4.7-2.7,8.9-5.6,11.6l14.2,20.7v1.1h-8.2l-12.4-18.9c-1.9,0.7-6,0.7-8.1,0.7v18.2h-7.2V84h7.2V103.2z"/>
			<path d="M574,127.9c-7.9,0-15.7-5.2-15.7-15.6c0-10.3,7.7-15.4,15.5-15.5c8-0.1,16,5.1,16,15.5
				C589.7,122.7,581.8,127.9,574,127.9z M574.1,121.9c4.5-0.1,8.9-3.3,8.9-9.6c0-6.5-4.7-9.7-9.3-9.6c-4.5,0.1-8.8,3.3-8.8,9.6
				C564.9,118.8,569.5,122,574.1,121.9z"/>
			<path d="M612,96.7c8.8,0,13.5,7.4,13.5,15.5c0,9.6-6.9,15.8-14.9,15.4c-2.5-0.1-5.1-0.9-7.5-2.4v17.4h-6.7V107
				c0-3.5,0.3-5.1-3.2-5.1l-0.1-4.6c4.9-1,8.7-0.2,8.7,5.1C603.5,98.2,607.7,96.7,612,96.7z M602.9,119.3c2.5,1.7,5.2,2.5,7.6,2.4
				c4.5-0.2,8.2-3.5,8.2-9.5c0-4.9-2.7-9.5-8-9.5c-4.6,0-7.7,3.8-7.7,8.3V119.3z"/>
			<path d="M628.5,97.4c4.8-1.2,9.8,0,9.8,4.9c1.9-3.8,5.8-5.5,10-5.5c8.1,0,12,5.3,11.8,12.7v10.6c0,2.2,0.6,3,3.5,2.7v4.3
				c-5.7,1.1-10.1,0.4-10.1-6.7v-10.6c0-4.7-3.1-7.5-7.1-7.5c-4.2,0-7.5,2.9-7.5,7.7v17.3H632v-20.7c0-4,0.2-5.2-3.5-4.9L628.5,97.4
				z"/>
			<path d="M681.8,127.9c-7.9,0-15.7-5.2-15.7-15.6c0-10.3,7.7-15.4,15.5-15.5c8-0.1,16,5.1,16,15.5
				C697.6,122.7,689.7,127.9,681.8,127.9z M681.9,121.9c4.5-0.1,8.9-3.3,8.9-9.6c0-6.5-4.7-9.7-9.3-9.6c-4.5,0.1-8.8,3.3-8.8,9.6
				C672.8,118.8,677.4,122,681.9,121.9z"/>
			<path d="M719.8,96.7c8.8,0,13.5,7.4,13.5,15.5c0,9.6-6.9,15.8-14.9,15.4c-2.5-0.1-5.1-0.9-7.5-2.4v17.4h-6.7V107
				c0-3.5,0.3-5.1-3.2-5.1l-0.1-4.6c4.9-1,8.7-0.2,8.7,5.1C711.3,98.2,715.5,96.7,719.8,96.7z M710.7,119.3c2.5,1.7,5.2,2.5,7.6,2.4
				c4.5-0.2,8.2-3.5,8.2-9.5c0-4.9-2.7-9.5-8-9.5c-4.6,0-7.7,3.8-7.7,8.3V119.3z"/>
			<path d="M748,127.9c-5.4,0-10.7-3.5-10.7-9.3c-0.2-7.1,5-10.5,11.6-10.5c2.9,0,6.2,0.7,8.8,2.2v-3c0-7.9-13.4-5.3-17.1-3.4
				l-1-4.8c3-1.5,7-2.4,11-2.4c7.2,0,13.7,2.5,13.7,10.8v11.8c0,2.8-0.1,4.6,3.1,4.3l0.1,3.8c-4.7,0.8-8.3,0.8-8.5-5.1
				C757,126.2,752.2,127.9,748,127.9z M757.7,114.6c-2.2-1.3-5.1-2.1-7.7-2c-3.3,0.1-6.1,2-6.1,5.6c0,3,2.7,4.3,5.4,4.3
				c3.5,0,7.7-1.7,8.3-5.4V114.6z"/>
			<path d="M786,122.4c4.3,0,7.5-3,7.5-7.9V97.5h6.7v22.2c0,3.6,0.9,4.1,4.3,4l-0.4,11.4H799v-7.3c-3.6,0.4-5-1.5-5-5.1
				c-1.7,4-5.8,5.1-10,5.1c-8.3,0-11.1-5.5-11.1-13v-9.3c0-2.5-0.1-4.2-3.7-3.7v-4.1c6.3-1.5,10.5,0.2,10.5,6.9v10.2
				C779.5,119.6,782.1,122.4,786,122.4z"/>
			<path d="M809.8,114.7V106c0-2.9-0.4-4.2-3.6-3.9c0-1.3-0.1-3.3-0.1-4.6c6.1-1.3,10.5,0.2,10.5,6.8v10.4c-0.1,4.8,2.5,7.7,6.4,7.7
				c4.3,0,7.5-3.1,7.5-7.9V97.5h6.7v21.3c0,3.6,0.3,4.6,3.2,4.3l0.1,4.4c-3.8,0.7-9,1.5-9-4.9c-2,4-6.4,5.3-10.6,5.3
				C812.7,127.8,809.8,122,809.8,114.7z"/>
			<path d="M852.3,116.5c-3.7-1.3-6.4-4.9-6.4-9c0-5.4,4.1-10,10.5-10c3.7,0,11.3,0,15,0v29.8c-2.3,0-4.5,0-6.8,0v-9.6h-5.6
				l-7.2,9.6h-7.2v-0.7L852.3,116.5z M864.5,112.3v-9.6c-2,0-4.1,0-6.2,0c-3.4,0-5.7,2-5.7,4.9c0,2.8,2.4,4.7,5.7,4.7H864.5z"/>
			<path d="M912.3,96.7c8.8,0,13.5,7.4,13.5,15.5c0,9.6-6.9,15.8-14.9,15.4c-2.5-0.1-5.1-0.9-7.5-2.4v17.4h-6.7V107
				c0-3.5,0.3-5.1-3.2-5.1l-0.1-4.6c4.9-1,8.7-0.2,8.7,5.1C903.8,98.2,908,96.7,912.3,96.7z M903.2,119.3c2.5,1.7,5.2,2.5,7.6,2.4
				c4.5-0.2,8.2-3.5,8.2-9.5c0-4.9-2.7-9.5-8-9.5c-4.6,0-7.7,3.8-7.7,8.3V119.3z"/>
			<path d="M940.4,127.9c-5.4,0-10.7-3.5-10.7-9.3c-0.2-7.1,5-10.5,11.6-10.5c2.9,0,6.2,0.7,8.8,2.2v-3c0-7.9-13.4-5.3-17.1-3.4
				l-1-4.8c3-1.5,7-2.4,11-2.4c7.2,0,13.7,2.5,13.7,10.8v11.8c0,2.8-0.1,4.6,3.1,4.3l0.1,3.8c-4.7,0.8-8.3,0.8-8.5-5.1
				C949.4,126.2,944.6,127.9,940.4,127.9z M950.1,114.6c-2.2-1.3-5.1-2.1-7.7-2c-3.3,0.1-6.1,2-6.1,5.6c0,3,2.7,4.3,5.4,4.3
				c3.5,0,7.7-1.7,8.3-5.4V114.6z"/>
			<path d="M964.7,99.2c2.7-1.5,6.9-2.4,10.9-2.4c5.9,0,11.8,1.9,11.8,8.2c0,2.8-1.5,5.4-4.6,6.2c3.8,0.9,6.4,3.6,6.4,7.6
				c0,6.7-6.4,9.2-13,9.2c-4.7,0-9.6-1.2-12.6-3l0.4-5.7c2,1.5,7.2,3,11.2,3.1c3.6,0,7.4-0.7,7.4-4c0-4-4.6-4.4-7.9-4.4
				c-1.5,0-2.9,0-4.4,0v-4.6c1.4,0,2.7,0,4.1,0c2.8,0,6.5-0.2,6.5-3.6c0-3.1-3.5-3.8-6.5-3.8c-2.8,0-7.1,0.7-9.4,2.1L964.7,99.2z"/>
			<path d="M1021.4,93.5c0,3.9-2.2,7-5.6,8.6c5.8,1.6,8.3,6.3,8.4,12.2c0,10.2-7.4,14-16,14.1c-4.4,0.1-9.1-0.7-13.2-2.2V94
				c0-7.6,5.7-12.1,13.1-12.1S1021.4,85.7,1021.4,93.5z M1001.6,101.6c5.3-1.8,13.4-1.2,13.4-7.9c0.1-3.8-3-6.2-6.6-6.2
				c-3.5,0-6.8,2.3-6.8,6.4V101.6z M1001.6,121.7c2.3,0.7,4.7,1.1,6.7,1.1c5.4-0.1,9.5-2.7,9.5-8.5c0-5.9-3.5-8.5-9.3-8.4
				c-2.1,0-4.5,0.4-6.9,1.2V121.7z"/>
			<path d="M1030.4,114.7V106c0-2.9-0.4-4.2-3.6-3.9c0-1.3-0.1-3.3-0.1-4.6c6.1-1.3,10.5,0.2,10.5,6.8v10.4
				c-0.1,4.8,2.5,7.7,6.4,7.7c4.3,0,7.5-3.1,7.5-7.9V97.5h6.7v21.3c0,3.6,0.3,4.6,3.2,4.3l0.1,4.4c-3.8,0.7-9,1.5-9-4.9
				c-2,4-6.4,5.3-10.6,5.3C1033.4,127.8,1030.4,122,1030.4,114.7z"/>
			<path d="M1063.8,97.4c4.6-1.4,10-0.4,10,4.9c1.9-3.7,5.9-5.5,9.9-5.4s7.4,1.9,8.9,5.6c2.4-4,6.4-5.8,10.7-5.8
				c8.1,0,10.3,6.2,10.3,13v9.5c0,2.5,0.1,4.2,3.7,3.7v4.1c-6.3,1.5-10.5-0.2-10.5-6.9v-10.5c0.1-4.5-1.8-7.5-5.8-7.5
				c-4.1,0.1-6.9,3-6.9,7.7v17.3h-6.6V110c0.1-4.6-1.9-7.7-6.1-7.7c-4.2,0.1-7.2,3-7.2,7.8v17.2h-6.8v-20.3c0-4-0.1-5.5-3.6-5.2
				V97.4z"/>
			<path d="M1122.2,114.7V106c0-2.9-0.4-4.2-3.6-3.9c0-1.3-0.1-3.3-0.1-4.6c6.1-1.3,10.5,0.2,10.5,6.8v10.4
				c-0.1,4.8,2.5,7.7,6.4,7.7c4.3,0,7.5-3.1,7.5-7.9V97.5h6.7v21.3c0,3.6,0.3,4.6,3.2,4.3l0.1,4.4c-3.8,0.7-9,1.5-9-4.9
				c-2,4-6.4,5.3-10.6,5.3C1125.1,127.8,1122.2,122,1122.2,114.7z"/>
			<path d="M1164.6,116.5c-3.7-1.3-6.4-4.9-6.4-9c0-5.4,4.1-10,10.5-10c3.7,0,11.3,0,15,0v29.8c-2.3,0-4.5,0-6.8,0v-9.6h-5.6
				l-7.2,9.6h-7.2v-0.7L1164.6,116.5z M1176.8,112.3v-9.6c-2,0-4.1,0-6.2,0c-3.4,0-5.7,2-5.7,4.9c0,2.8,2.3,4.7,5.7,4.7H1176.8z"/>
			<path d="M522.7,208.1h-5.9v-12.7h4.5l15.5-37.6h3l16.1,37.6h4.7v12.7h-5.8v-6.6c-10.8,0-21.5,0-32.2,0V208.1z M528.6,195.3h20.1
				l-10.3-25.5h-0.1L528.6,195.3z"/>
			<path d="M574.7,202.1c-5.4,0-10.7-3.5-10.7-9.3c-0.2-7.1,5-10.5,11.6-10.5c2.9,0,6.2,0.7,8.8,2.2v-3c0-7.9-13.4-5.3-17.1-3.4
				l-1-4.8c3-1.5,7-2.4,11-2.4c7.2,0,13.7,2.5,13.7,10.8v11.8c0,2.8-0.1,4.6,3.1,4.3l0.1,3.8c-4.7,0.8-8.3,0.8-8.5-5.1
				C583.7,200.4,578.9,202.1,574.7,202.1z M584.4,188.8c-2.2-1.3-5.1-2.1-7.7-2c-3.3,0.1-6.1,2-6.1,5.6c0,3,2.7,4.3,5.4,4.3
				c3.5,0,7.7-1.7,8.3-5.4V188.8z"/>
			<path d="M614.5,171.4l14.5,29.4v0.7h-7.3l-3.8-8.7l-4.6-11.1h-0.1l-4.7,11.1l-3.9,8.8h-7.2v-0.7l14.4-29.4H614.5z"/>
			<path d="M633.5,201.5c0-10,0-19.9,0-29.8h6.5v9.3h6c6.8,0,13.1,2.7,13.1,10.3c0,7.5-6.4,10.3-13.2,10.3H633.5z M640,186.1v10.3
				h5.9c3.6,0,6.7-1.6,6.7-5.1s-3-5.1-6.7-5.1H640z"/>
			<path d="M664.6,201.5v-21.3c0-2.9-0.4-4.2-3.6-3.9c0-1.3-0.1-3.3-0.1-4.6c6.1-1.3,10.3,0.2,10.3,6.8v4.6h14.3v-11.4h6.6V193
				c0,2.9,0.4,4.2,3.6,3.9c0,1.3,0.1,3.3,0.1,4.6c-6.1,1.3-10.3-0.2-10.3-6.8V189h-14.4v12.5H664.6z"/>
			<path d="M727.5,187.8h-22c0,5.4,4.3,8.7,9.7,8.7c3.7,0.2,7.3-0.3,10.8-1.9l0.9,5c-3.5,1.5-7.5,2.5-11.3,2.5
				c-9.8,0.2-17.1-6.1-16.8-16.2c0.2-10,7.4-15,15.5-15C724.8,171,729.5,177.9,727.5,187.8z M705.6,183.1H722
				c0.2-4.5-3.5-6.9-7.8-6.9C709.8,176.2,706.5,178.4,705.6,183.1z"/>
			<path d="M758.6,192.7c-0.5,7.4-7.1,9.5-13.7,9.5s-13-2.3-13-8.9c0-7,6.1-8.7,12.3-9.5c4.6-0.6,7.2-1.1,7.2-3.8c0-3-3.2-4-6.2-4
				c-3.2,0-6.1,0.9-6.1,3.9h-5.9c-0.2-5.9,5.2-9,12.1-9c6.5,0,12.7,2.8,12.7,9.2c-0.2,6.7-7,7.6-13.2,8.4c-3.9,0.5-6.4,1.9-6.4,4.6
				c0.2,3.6,3.5,4,6.8,4c3.2,0,6.4-1.4,6.6-4.5H758.6z"/>
			<path d="M778.2,202.1c-7.9,0-15.7-5.2-15.7-15.6c0-10.3,7.7-15.4,15.5-15.5c8-0.1,16,5.1,16,15.5
				C794,196.9,786,202.1,778.2,202.1z M778.3,196.1c4.5-0.1,8.9-3.3,8.9-9.6c0-6.5-4.7-9.7-9.3-9.6c-4.5,0.1-8.8,3.3-8.8,9.6
				C769.2,193,773.7,196.2,778.3,196.1z"/>
			<path d="M843.5,178.7c4.5,1.5,7,5.1,7,10c0,7.7-5.3,12.7-13.7,12.7h-19.4v-43.3H835c7.9,0,13.6,4,13.6,12.2
				C848.6,174,846.9,177.1,843.5,178.7z M824.6,164.5v11.9h9.9c4.1,0,7-1.6,7.1-5.8c0-4.3-2.8-6.1-7.1-6.1H824.6z M824.6,182.3v12.9
				h11.8c4,0,6.9-2.3,7.1-6.4c0-2.2-0.7-3.9-2.2-5.1c-1.7-1.2-3.6-1.4-5.6-1.4H824.6z"/>
			<path d="M870.8,202.1c-7.9,0-15.7-5.2-15.7-15.6c0-10.3,7.7-15.4,15.5-15.5c8-0.1,16,5.1,16,15.5
				C886.5,196.9,878.6,202.1,870.8,202.1z M870.9,196.1c4.5-0.1,8.9-3.3,8.9-9.6c0-6.5-4.7-9.7-9.3-9.6c-4.5,0.1-8.8,3.3-8.8,9.6
				C861.7,193,866.3,196.2,870.9,196.1z"/>
			<path d="M914.8,181.6c-1.3-3.2-4.5-4.8-7.9-4.8c-4.6,0-9.3,3.3-9.3,9.6c0,6.4,4.6,9.7,9.2,9.7c3.3,0,6.7-1.8,8-5.4h6.4
				c-1.5,7.5-8,11.3-14.6,11.3c-7.8,0-15.7-5.2-15.7-15.5c0-10.3,7.9-15.6,15.6-15.6c6.5-0.1,12.9,3.5,14.5,10.8H914.8z"/>
			<path d="M923.9,171.6c4.6-1.4,10-0.4,10,4.9c1.9-3.7,5.9-5.5,9.9-5.4s7.4,1.9,8.9,5.6c2.4-4,6.4-5.8,10.7-5.8
				c8.1,0,10.3,6.2,10.3,13v9.5c0,2.5,0.1,4.2,3.7,3.7v4.1c-6.3,1.5-10.5-0.2-10.5-6.9V184c0.1-4.5-1.8-7.5-5.8-7.5
				c-4.1,0.1-6.9,3-6.9,7.7v17.3h-6.6v-17.3c0.1-4.6-1.9-7.7-6.1-7.7c-4.2,0.1-7.2,3-7.2,7.8v17.2h-6.8v-20.3c0-4-0.1-5.5-3.6-5.2
				V171.6z"/>
			<path d="M995.6,202.1c-7.9,0-15.7-5.2-15.7-15.6c0-10.3,7.7-15.4,15.5-15.5c8-0.1,16,5.1,16,15.5
				C1011.3,196.9,1003.4,202.1,995.6,202.1z M995.7,196.1c4.5-0.1,8.9-3.3,8.9-9.6c0-6.5-4.7-9.7-9.3-9.6c-4.5,0.1-8.8,3.3-8.8,9.6
				C986.5,193,991.1,196.2,995.7,196.1z"/>
			<path d="M1043.6,171.6h-6.4c0,7.2-2.7,11.9-10.1,11.9h-3.1v-12.2h-6.7v30.2h6.7v-12.3h3c1,0,2.2-0.1,3.2-0.3l8.3,12.6h7.1v-0.7
				l-9.6-14.1C1042,183.9,1043.6,178.1,1043.6,171.6z"/>
			<path d="M1058.2,202.1c-5.4,0-10.7-3.5-10.7-9.3c-0.2-7.1,5-10.5,11.6-10.5c2.9,0,6.2,0.7,8.8,2.2v-3c0-7.9-13.4-5.3-17.1-3.4
				l-1-4.8c3-1.5,7-2.4,11-2.4c7.2,0,13.7,2.5,13.7,10.8v11.8c0,2.8-0.1,4.6,3.1,4.3l0.1,3.8c-4.7,0.8-8.3,0.8-8.5-5.1
				C1067.2,200.4,1062.4,202.1,1058.2,202.1z M1067.9,188.8c-2.2-1.3-5.1-2.1-7.7-2c-3.3,0.1-6.1,2-6.1,5.6c0,3,2.7,4.3,5.4,4.3
				c3.5,0,7.7-1.7,8.3-5.4V188.8z"/>
			<path d="M1100.2,188.9v-8.7c0-2.9-0.4-4.2-3.6-3.9c0-1.3-0.1-3.3-0.1-4.6c6.1-1.3,10.5,0.2,10.5,6.8v10.4
				c-0.1,4.8,2.5,7.7,6.4,7.7c4.3,0,7.5-3.1,7.5-7.9v-17.1h6.7V193c0,3.6,0.3,4.6,3.2,4.3l0.1,4.4c-3.8,0.7-9,1.5-9-4.9
				c-2,4-6.4,5.3-10.6,5.3C1103.1,202,1100.2,196.2,1100.2,188.9z"/>
			<path d="M1160.4,192.5l-4.2,9h-7.5v-0.9l20-42.7h3.3l19.9,42.7v0.9h-7.5l-4.3-9H1160.4z M1162.7,186.5h15.2l-7.5-17.3
				L1162.7,186.5z"/>
			<path d="M1212.2,170.9c8.8,0,13.5,7.4,13.5,15.5c0,9.6-6.9,15.8-14.9,15.4c-2.5-0.1-5.1-0.9-7.5-2.4v17.4h-6.7v-35.6
				c0-3.5,0.3-5.1-3.2-5.1l-0.1-4.6c4.9-1,8.7-0.2,8.7,5.1C1203.7,172.4,1207.9,170.9,1212.2,170.9z M1203.1,193.5
				c2.5,1.7,5.2,2.5,7.6,2.4c4.5-0.2,8.2-3.5,8.2-9.5c0-4.9-2.7-9.5-8-9.5c-4.6,0-7.7,3.8-7.7,8.3V193.5z"/>
			<path d="M1258,171.6h-6.4c0,7.2-2.7,11.9-10.1,11.9h-3.1v-12.2h-6.7v30.2h6.7v-12.3h3c1,0,2.2-0.1,3.2-0.3l8.3,12.6h7.1v-0.7
				l-9.6-14.1C1256.4,183.9,1258.1,178.1,1258,171.6z"/>
			<path d="M1262.4,171.6c4.6-1.4,10-0.4,10,4.9c1.9-3.7,5.9-5.5,9.9-5.4s7.4,1.9,8.9,5.6c2.4-4,6.4-5.8,10.7-5.8
				c8.1,0,10.3,6.2,10.3,13v9.5c0,2.5,0.1,4.2,3.7,3.7v4.1c-6.3,1.5-10.5-0.2-10.5-6.9V184c0.1-4.5-1.8-7.5-5.8-7.5
				c-4.1,0.1-6.9,3-6.9,7.7v17.3h-6.6v-17.3c0.1-4.6-1.9-7.7-6.1-7.7c-4.2,0.1-7.2,3-7.2,7.8v17.2h-6.8v-20.3c0-4-0.1-5.5-3.6-5.2
				V171.6z"/>
			<path d="M1320.7,188.9v-8.7c0-2.9-0.4-4.2-3.6-3.9c0-1.3-0.1-3.3-0.1-4.6c6.1-1.3,10.5,0.2,10.5,6.8v10.4
				c-0.1,4.8,2.5,7.7,6.4,7.7c4.3,0,7.5-3.1,7.5-7.9v-17.1h6.7V193c0,3.6,0.3,4.6,3.2,4.3l0.1,4.4c-3.8,0.7-9,1.5-9-4.9
				c-2,4-6.4,5.3-10.6,5.3C1323.6,202,1320.7,196.2,1320.7,188.9z"/>
			<path d="M1391.2,188.9v-8.7c0-2.9-0.4-4.2-3.6-3.9c0-1.3-0.1-3.3-0.1-4.6c6.1-1.3,10.5,0.2,10.5,6.8v10.4
				c-0.1,4.8,2.5,7.7,6.4,7.7c4.3,0,7.5-3.1,7.5-7.9v-17.1h6.7V193c0,3.6,0.3,4.6,3.2,4.3l0.1,4.4c-3.8,0.7-9,1.5-9-4.9
				c-2,4-6.4,5.3-10.6,5.3C1394.1,202,1391.2,196.2,1391.2,188.9z"/>
			<path d="M1383.3,171.6h-6.4c0,7.2-2.7,11.9-10.1,11.9h-3.1v-12.2h-6.7v30.2h6.7v-12.3h3c1,0,2.2-0.1,3.2-0.3l8.3,12.6h7.1v-0.7
				l-9.6-14.1C1381.7,183.9,1383.3,178.1,1383.3,171.6z"/>
		</g>
	</g>
</g>
</svg>
