<svg width="12" height="13" viewBox="0 0 12 13" fill="none" xmlns="http://www.w3.org/2000/svg">
<path fill-rule="evenodd" clip-rule="evenodd" d="M8.44539e-07 6.49998C-0.000280637 5.96724 0.0705962 5.43685 0.210751 4.92287H2.34233C2.21211 5.97025 2.21211 7.02972 2.34233 8.07709H0.210775C0.0706026 7.56312 -0.000282241 7.03273 8.44539e-07 6.49998ZM8.2053 12.0802C8.40432 11.8153 8.5803 11.5339 8.73128 11.2391C9.07849 10.5683 9.34333 9.78489 9.51693 8.9343H11.4836C10.8424 10.3699 9.66615 11.4986 8.2053 12.0802ZM0.516424 8.93428H2.48333C2.65655 9.78487 2.92177 10.5682 3.26898 11.239C3.41979 11.534 3.59578 11.8154 3.79498 12.0802C2.33403 11.4987 1.15771 10.37 0.516424 8.93428ZM3.79498 0.919807C3.5958 1.18454 3.41982 1.46595 3.26898 1.76091C2.92177 2.43183 2.65655 3.21507 2.48333 4.06566H0.516424C1.15775 2.63 2.33406 1.5013 3.79498 0.919807ZM11.4836 4.06569H9.51693C9.34333 3.21509 9.07849 2.43186 8.73128 1.76093C8.58027 1.46607 8.4043 1.18466 8.2053 0.919807C9.66613 1.50137 10.8423 2.63007 11.4836 4.06569ZM9.65756 4.92287H11.7892C12.0703 5.9555 12.0703 7.04446 11.7892 8.07709H9.65756C9.7231 7.55395 9.75577 7.02721 9.75536 6.49998C9.75577 5.97275 9.7231 5.44601 9.65756 4.92287ZM6.42854 8.07709V4.92287H8.79339C8.86375 5.44562 8.89875 5.97252 8.89816 6.49998C8.89876 7.02744 8.86375 7.55435 8.79339 8.07709H6.42854ZM6.42854 12.4271C6.99055 12.2377 7.53562 11.6845 7.97015 10.8452C8.25859 10.2874 8.48439 9.63979 8.64133 8.93437H6.42854V12.427V12.4271ZM5.57136 8.93428H3.35886C3.51554 9.63975 3.74131 10.2874 4.03004 10.8451C4.46431 11.6844 5.00938 12.2376 5.57127 12.4271V8.93428H5.57136ZM5.57136 0.572954C5.00947 0.762377 4.46441 1.31567 4.03013 2.15499C3.74141 2.7128 3.51563 3.36038 3.35895 4.06578H5.57146V0.572954H5.57136ZM6.42854 0.572954V4.06569H8.64142C8.48439 3.36022 8.25869 2.71259 7.97024 2.15489C7.53571 1.31567 6.99055 0.762377 6.42864 0.572861L6.42854 0.572954ZM3.10182 6.49998C3.10125 5.97252 3.13621 5.44563 3.20644 4.92287H5.57129V8.07709H3.20644C3.1362 7.55434 3.10125 7.02744 3.10182 6.49998Z" fill="#1C5A96"/>
</svg>
