<svg width="254" height="254" viewBox="0 0 254 254" fill="none" xmlns="http://www.w3.org/2000/svg">
<g clip-path="url(#clip0_277_5336)">
<path d="M233.037 84.1931C225.852 86.1435 221.607 93.5485 223.557 100.733C225.866 109.244 227.037 118.083 227.037 126.999C227.037 153.72 216.63 178.842 197.737 197.737C178.842 216.633 153.72 227.037 126.999 227.037C100.277 227.037 75.1555 216.63 56.26 197.737C37.3645 178.842 26.9606 153.72 26.9606 126.999C26.9606 100.277 37.3672 75.1555 56.26 56.26C75.1555 37.3645 100.277 26.9606 126.999 26.9606C140.369 26.9606 153.343 29.5493 165.561 34.659C172.428 37.5302 180.325 34.2922 183.199 27.4224C186.07 20.5525 182.832 12.6586 175.962 9.78459C160.432 3.29232 143.96 0 126.999 0C110.037 0 93.2252 3.36023 77.5596 9.9856C62.4345 16.3828 48.855 25.5372 37.1961 37.1961C25.5372 48.855 16.3828 62.4345 9.9856 77.5596C3.36023 93.228 0 109.861 0 126.999C0 144.137 3.36023 160.772 9.9856 176.438C16.3828 191.563 25.5372 205.142 37.1961 216.801C48.855 228.46 62.4345 237.614 77.5596 244.012C93.2252 250.637 109.858 253.997 126.999 253.997C144.139 253.997 160.772 250.637 176.438 244.012C191.563 237.614 205.142 228.46 216.801 216.801C228.46 205.142 237.614 191.563 244.012 176.438C250.637 160.772 253.997 144.139 253.997 126.999C253.997 115.698 252.511 104.485 249.578 93.6734C247.63 86.4885 240.228 82.2454 233.037 84.1931Z" fill="url(#paint0_linear_277_5336)"/>
<path d="M84.9048 111.352C79.6404 106.087 71.1054 106.087 65.8409 111.352C60.5765 116.616 60.5765 125.151 65.8409 130.416L110.866 175.441C113.4 177.975 116.831 179.388 120.398 179.388C120.648 179.388 120.895 179.38 121.145 179.366C124.975 179.154 128.531 177.32 130.927 174.324L227.164 53.9591C231.812 48.1433 230.87 39.6626 225.054 35.012C219.238 30.3615 210.757 31.3068 206.107 37.1227L119.279 145.723L84.9048 111.349V111.352Z" fill="url(#paint1_linear_277_5336)"/>
</g>
<defs>
<linearGradient id="paint0_linear_277_5336" x1="241.526" y1="-40.0409" x2="-6.72369" y2="195.947" gradientUnits="userSpaceOnUse">
<stop stop-color="#EBF7FF"/>
<stop offset="1" stop-color="#E8E9F7"/>
</linearGradient>
<linearGradient id="paint1_linear_277_5336" x1="221.856" y1="8.83376" x2="78.1599" y2="164.806" gradientUnits="userSpaceOnUse">
<stop stop-color="#EBF7FF"/>
<stop offset="1" stop-color="#E8E9F7"/>
</linearGradient>
<clipPath id="clip0_277_5336">
<rect width="254" height="254" fill="white"/>
</clipPath>
</defs>
</svg>
