<svg width="40" height="40" viewBox="0 0 40 40" fill="none" xmlns="http://www.w3.org/2000/svg">
<g clip-path="url(#clip0_430_33)">
<path d="M40 20C40 31.05 31.05 40 20 40C8.95 40 0 31.05 0 20C0 8.95 8.95 0 20 0C31.05 0 40 8.95 40 20Z" fill="url(#paint0_linear_430_33)"/>
<path d="M16.3336 29.1667C15.6836 29.1667 15.8003 28.9167 15.567 28.3L13.667 22.0334L25.4669 14.6667L26.8503 15.0334L25.7003 18.1667L16.3336 29.1667Z" fill="#C8DAEA"/>
<path d="M16.3335 29.1666C16.8335 29.1666 17.0502 28.9333 17.3335 28.6666C17.7668 28.2499 23.3335 22.8333 23.3335 22.8333L19.9168 22L16.7502 24L16.3335 28.9999V29.1666Z" fill="#A9C9DD"/>
<path d="M16.6666 24.0667L24.7333 30.0167C25.65 30.5167 26.3167 30.2667 26.55 29.1667L29.8333 13.6999C30.1667 12.3499 29.3167 11.7499 28.4333 12.1499L9.16657 19.5833C7.8499 20.1166 7.86656 20.85 8.93323 21.1666L13.8833 22.7167L25.3333 15.4999C25.8667 15.1666 26.3667 15.3499 25.9667 15.7166L16.6666 24.0667Z" fill="url(#paint1_linear_430_33)"/>
</g>
<defs>
<linearGradient id="paint0_linear_430_33" x1="25.8617" y1="6.32167" x2="15.8617" y2="29.6547" gradientUnits="userSpaceOnUse">
<stop stop-color="#37AEE2"/>
<stop offset="1" stop-color="#1E96C8"/>
</linearGradient>
<linearGradient id="paint1_linear_430_33" x1="21.4985" y1="20.6258" x2="25.6652" y2="27.2925" gradientUnits="userSpaceOnUse">
<stop stop-color="#EFF7FC"/>
<stop offset="1" stop-color="white"/>
</linearGradient>
<clipPath id="clip0_430_33">
<rect width="40" height="40" fill="white"/>
</clipPath>
</defs>
</svg>
