<svg width="171" height="40" viewBox="0 0 171 40" fill="none" xmlns="http://www.w3.org/2000/svg">
<g clip-path="url(#clip0_475_204)">
<path fill-rule="evenodd" clip-rule="evenodd" d="M20 0C8.955 0 0 8.955 0 20C0 31.045 8.955 40 20 40C31.045 40 40 31.045 40 20C40 8.955 31.045 0 20 0ZM29.27 13.6017C28.97 16.7633 27.6667 24.4383 27.005 27.98C26.725 29.48 26.1717 29.9817 25.6383 30.03C24.4767 30.1367 23.595 29.2617 22.47 28.525C20.71 27.3717 19.715 26.6533 18.0067 25.5267C16.0317 24.225 17.3117 23.51 18.4367 22.3417C18.7317 22.035 23.8483 17.38 23.9483 16.9583C23.96 16.905 23.9733 16.7083 23.855 16.605C23.7367 16.5017 23.565 16.5367 23.4417 16.565C23.265 16.605 20.4533 18.4633 15.005 22.14C14.2067 22.6883 13.4833 22.955 12.835 22.9417C12.1217 22.9267 10.7483 22.5383 9.72667 22.205C8.475 21.7983 7.47833 21.5817 7.565 20.8917C7.61 20.5317 8.105 20.1633 9.05167 19.7867C14.8817 17.2467 18.77 15.5717 20.715 14.7617C26.27 12.4517 27.4233 12.05 28.1767 12.0367C29.12 12.0233 29.3467 12.8017 29.27 13.6017Z" fill="white"/>
</g>
<path d="M50.96 17V8.6H57.62V17H56.54V9.62H52.04V17H50.96ZM59.9461 16.232C59.3541 15.64 59.0581 14.896 59.0581 14C59.0581 13.104 59.3541 12.36 59.9461 11.768C60.5381 11.176 61.2821 10.88 62.1781 10.88C63.0741 10.88 63.8181 11.176 64.4101 11.768C65.0021 12.36 65.2981 13.104 65.2981 14C65.2981 14.896 65.0021 15.64 64.4101 16.232C63.8181 16.824 63.0741 17.12 62.1781 17.12C61.2821 17.12 60.5381 16.824 59.9461 16.232ZM60.6301 12.404C60.2221 12.82 60.0181 13.352 60.0181 14C60.0181 14.648 60.2221 15.18 60.6301 15.596C61.0381 16.012 61.5541 16.22 62.1781 16.22C62.8021 16.22 63.3181 16.012 63.7261 15.596C64.1341 15.18 64.3381 14.648 64.3381 14C64.3381 13.352 64.1341 12.82 63.7261 12.404C63.3181 11.988 62.8021 11.78 62.1781 11.78C61.5541 11.78 61.0381 11.988 60.6301 12.404ZM65.8334 18.38V16.1H66.4934L67.8734 11H70.3934L71.7734 16.1H72.4334V18.38H71.4734V17H66.7934V18.38H65.8334ZM67.4534 16.1H70.8134L69.6734 11.9H68.5934L67.4534 16.1ZM73.3283 17V11H78.5483V17H77.5883V11.9H74.2883V17H73.3283ZM80.2306 17V11H81.1906V15.5L81.1786 15.62H81.2026L84.4306 11H85.5106V17H84.5506V12.5L84.5626 12.38H84.5386L81.3106 17H80.2306ZM87.6956 16.232C87.1196 15.64 86.8316 14.896 86.8316 14C86.8316 13.104 87.1196 12.36 87.6956 11.768C88.2716 11.176 88.9836 10.88 89.8316 10.88C90.8156 10.88 91.5956 11.232 92.1716 11.936C92.4196 12.248 92.5996 12.596 92.7116 12.98H91.7516C91.6636 12.764 91.5316 12.564 91.3556 12.38C90.9716 11.98 90.4636 11.78 89.8316 11.78C89.2476 11.78 88.7596 11.988 88.3676 12.404C87.9836 12.82 87.7916 13.352 87.7916 14C87.7916 14.648 87.9916 15.18 88.3916 15.596C88.7916 16.012 89.2716 16.22 89.8316 16.22C90.4876 16.22 91.0116 16 91.4036 15.56C91.5796 15.376 91.7156 15.156 91.8116 14.9H92.7716C92.6676 15.308 92.4836 15.68 92.2196 16.016C91.6116 16.752 90.8156 17.12 89.8316 17.12C88.9836 17.12 88.2716 16.824 87.6956 16.232ZM99.4367 17V11H100.397V17H99.4367ZM93.9767 17V11H94.9367V13.04H96.3767C97.0487 13.04 97.5967 13.232 98.0207 13.616C98.4447 13.992 98.6567 14.46 98.6567 15.02C98.6567 15.58 98.4447 16.052 98.0207 16.436C97.5967 16.812 97.0487 17 96.3767 17H93.9767ZM94.9367 16.1H96.3767C96.7927 16.1 97.1167 16 97.3487 15.8C97.5807 15.6 97.6967 15.34 97.6967 15.02C97.6967 14.7 97.5807 14.44 97.3487 14.24C97.1167 14.04 96.7927 13.94 96.3767 13.94H94.9367V16.1ZM102.074 17V11H105.014C105.574 11 106.014 11.14 106.334 11.42C106.654 11.7 106.814 12.06 106.814 12.5C106.814 12.7 106.786 12.884 106.73 13.052C106.674 13.212 106.606 13.34 106.526 13.436C106.446 13.524 106.358 13.6 106.262 13.664C106.174 13.72 106.098 13.76 106.034 13.784C105.978 13.8 105.938 13.808 105.914 13.808V13.82C105.938 13.82 105.986 13.832 106.058 13.856C106.13 13.872 106.222 13.916 106.334 13.988C106.454 14.052 106.566 14.132 106.67 14.228C106.774 14.324 106.862 14.464 106.934 14.648C107.014 14.832 107.054 15.036 107.054 15.26C107.054 15.78 106.874 16.2 106.514 16.52C106.162 16.84 105.666 17 105.026 17H102.074ZM103.034 13.46H104.954C105.554 13.46 105.854 13.2 105.854 12.68C105.854 12.16 105.554 11.9 104.954 11.9H103.034V13.46ZM103.034 16.1H105.014C105.366 16.1 105.634 16.02 105.818 15.86C106.002 15.7 106.094 15.48 106.094 15.2C106.094 14.92 106.002 14.7 105.818 14.54C105.634 14.38 105.366 14.3 105.014 14.3H103.034V16.1ZM108.859 16.232C108.299 15.632 108.019 14.888 108.019 14C108.019 13.112 108.299 12.372 108.859 11.78C109.419 11.18 110.099 10.88 110.899 10.88C111.403 10.88 111.827 10.976 112.171 11.168C112.523 11.36 112.779 11.568 112.939 11.792L113.047 11.972H113.059V11H114.019V17H113.059V16.04H113.047L112.939 16.208C112.795 16.424 112.547 16.632 112.195 16.832C111.843 17.024 111.411 17.12 110.899 17.12C110.099 17.12 109.419 16.824 108.859 16.232ZM109.555 12.404C109.171 12.82 108.979 13.352 108.979 14C108.979 14.648 109.171 15.18 109.555 15.596C109.947 16.012 110.435 16.22 111.019 16.22C111.603 16.22 112.087 16.012 112.471 15.596C112.863 15.18 113.059 14.648 113.059 14C113.059 13.352 112.863 12.82 112.471 12.404C112.087 11.988 111.603 11.78 111.019 11.78C110.435 11.78 109.947 11.988 109.555 12.404ZM115.703 17V11H116.663V15.5L116.651 15.62H116.675L119.903 11H120.983V17H120.023V12.5L120.035 12.38H120.011L116.783 17H115.703ZM116.567 8.6H117.467C117.467 8.816 117.543 8.992 117.695 9.128C117.847 9.256 118.071 9.32 118.367 9.32C118.663 9.32 118.887 9.256 119.039 9.128C119.191 8.992 119.267 8.816 119.267 8.6H120.167C120.167 9.04 120.007 9.4 119.687 9.68C119.367 9.96 118.927 10.1 118.367 10.1C117.807 10.1 117.367 9.96 117.047 9.68C116.727 9.4 116.567 9.04 116.567 8.6ZM121.884 11.9V11H127.044V11.9H124.944V17H123.984V11.9H121.884ZM128.465 16.232C127.881 15.64 127.589 14.896 127.589 14C127.589 13.104 127.881 12.36 128.465 11.768C129.049 11.176 129.777 10.88 130.649 10.88C131.521 10.88 132.249 11.172 132.833 11.756C133.417 12.34 133.709 13.068 133.709 13.94V14.3H128.549C128.613 14.86 128.841 15.32 129.233 15.68C129.625 16.04 130.097 16.22 130.649 16.22C131.241 16.22 131.749 16.04 132.173 15.68C132.365 15.52 132.517 15.34 132.629 15.14H133.589C133.445 15.516 133.241 15.848 132.977 16.136C132.353 16.792 131.577 17.12 130.649 17.12C129.777 17.12 129.049 16.824 128.465 16.232ZM128.573 13.46H132.689C132.617 12.988 132.397 12.592 132.029 12.272C131.661 11.944 131.201 11.78 130.649 11.78C130.097 11.78 129.633 11.944 129.257 12.272C128.881 12.592 128.653 12.988 128.573 13.46ZM135.532 16.232C134.956 15.64 134.668 14.896 134.668 14C134.668 13.104 134.956 12.36 135.532 11.768C136.108 11.176 136.82 10.88 137.668 10.88C138.652 10.88 139.432 11.232 140.008 11.936C140.256 12.248 140.436 12.596 140.548 12.98H139.588C139.5 12.764 139.368 12.564 139.192 12.38C138.808 11.98 138.3 11.78 137.668 11.78C137.084 11.78 136.596 11.988 136.204 12.404C135.82 12.82 135.628 13.352 135.628 14C135.628 14.648 135.828 15.18 136.228 15.596C136.628 16.012 137.108 16.22 137.668 16.22C138.324 16.22 138.848 16 139.24 15.56C139.416 15.376 139.552 15.156 139.648 14.9H140.608C140.504 15.308 140.32 15.68 140.056 16.016C139.448 16.752 138.652 17.12 137.668 17.12C136.82 17.12 136.108 16.824 135.532 16.232ZM141.813 17V11H142.773V13.04H144.453C145.125 13.04 145.673 13.232 146.097 13.616C146.521 13.992 146.733 14.46 146.733 15.02C146.733 15.58 146.521 16.052 146.097 16.436C145.673 16.812 145.125 17 144.453 17H141.813ZM142.773 16.1H144.453C144.869 16.1 145.193 16 145.425 15.8C145.657 15.6 145.773 15.34 145.773 15.02C145.773 14.7 145.657 14.44 145.425 14.24C145.193 14.04 144.869 13.94 144.453 13.94H142.773V16.1ZM151.235 17V11H152.195V13.46H155.555V11H156.515V17H155.555V14.36H152.195V17H151.235ZM158.675 16.232C158.115 15.632 157.835 14.888 157.835 14C157.835 13.112 158.115 12.372 158.675 11.78C159.235 11.18 159.915 10.88 160.715 10.88C161.219 10.88 161.643 10.976 161.987 11.168C162.339 11.36 162.595 11.568 162.755 11.792L162.863 11.972H162.875V11H163.835V17H162.875V16.04H162.863L162.755 16.208C162.611 16.424 162.363 16.632 162.011 16.832C161.659 17.024 161.227 17.12 160.715 17.12C159.915 17.12 159.235 16.824 158.675 16.232ZM159.371 12.404C158.987 12.82 158.795 13.352 158.795 14C158.795 14.648 158.987 15.18 159.371 15.596C159.763 16.012 160.251 16.22 160.835 16.22C161.419 16.22 161.903 16.012 162.287 15.596C162.679 15.18 162.875 14.648 162.875 14C162.875 13.352 162.679 12.82 162.287 12.404C161.903 11.988 161.419 11.78 160.835 11.78C160.251 11.78 159.763 11.988 159.371 12.404ZM50.84 30V24H51.8V26.46H55.16V24H56.12V30H55.16V27.36H51.8V30H50.84ZM58.2809 29.232C57.7209 28.632 57.4409 27.888 57.4409 27C57.4409 26.112 57.7209 25.372 58.2809 24.78C58.8409 24.18 59.5209 23.88 60.3209 23.88C60.8249 23.88 61.2489 23.976 61.5929 24.168C61.9449 24.36 62.2009 24.568 62.3609 24.792L62.4689 24.972H62.4809V24H63.4409V30H62.4809V29.04H62.4689L62.3609 29.208C62.2169 29.424 61.9689 29.632 61.6169 29.832C61.2649 30.024 60.8329 30.12 60.3209 30.12C59.5209 30.12 58.8409 29.824 58.2809 29.232ZM58.9769 25.404C58.5929 25.82 58.4009 26.352 58.4009 27C58.4009 27.648 58.5929 28.18 58.9769 28.596C59.3689 29.012 59.8569 29.22 60.4409 29.22C61.0249 29.22 61.5089 29.012 61.8929 28.596C62.2849 28.18 62.4809 27.648 62.4809 27C62.4809 26.352 62.2849 25.82 61.8929 25.404C61.5089 24.988 61.0249 24.78 60.4409 24.78C59.8569 24.78 59.3689 24.988 58.9769 25.404ZM65.1252 30V24H66.0852V29.1H68.4852V24H69.4452V29.1H71.8452V24H72.8052V30H65.1252ZM76.5341 22.62V21.6H83.3741V22.62H80.4941V30H79.4141V22.62H76.5341ZM84.3677 29.232C83.7837 28.64 83.4917 27.896 83.4917 27C83.4917 26.104 83.7837 25.36 84.3677 24.768C84.9517 24.176 85.6797 23.88 86.5517 23.88C87.4237 23.88 88.1517 24.172 88.7357 24.756C89.3197 25.34 89.6117 26.068 89.6117 26.94V27.3H84.4517C84.5157 27.86 84.7437 28.32 85.1357 28.68C85.5277 29.04 85.9997 29.22 86.5517 29.22C87.1437 29.22 87.6517 29.04 88.0757 28.68C88.2677 28.52 88.4197 28.34 88.5317 28.14H89.4917C89.3477 28.516 89.1437 28.848 88.8797 29.136C88.2557 29.792 87.4797 30.12 86.5517 30.12C85.6797 30.12 84.9517 29.824 84.3677 29.232ZM84.4757 26.46H88.5917C88.5197 25.988 88.2997 25.592 87.9317 25.272C87.5637 24.944 87.1037 24.78 86.5517 24.78C85.9997 24.78 85.5357 24.944 85.1597 25.272C84.7837 25.592 84.5557 25.988 84.4757 26.46ZM90.9298 30V21.6H91.8898V29.1H93.2698V30H90.9298ZM94.7505 29.232C94.1665 28.64 93.8745 27.896 93.8745 27C93.8745 26.104 94.1665 25.36 94.7505 24.768C95.3345 24.176 96.0625 23.88 96.9345 23.88C97.8065 23.88 98.5345 24.172 99.1185 24.756C99.7025 25.34 99.9945 26.068 99.9945 26.94V27.3H94.8345C94.8985 27.86 95.1265 28.32 95.5185 28.68C95.9105 29.04 96.3825 29.22 96.9345 29.22C97.5265 29.22 98.0345 29.04 98.4585 28.68C98.6505 28.52 98.8025 28.34 98.9145 28.14H99.8745C99.7305 28.516 99.5265 28.848 99.2625 29.136C98.6385 29.792 97.8625 30.12 96.9345 30.12C96.0625 30.12 95.3345 29.824 94.7505 29.232ZM94.8585 26.46H98.9745C98.9025 25.988 98.6825 25.592 98.3145 25.272C97.9465 24.944 97.4865 24.78 96.9345 24.78C96.3825 24.78 95.9185 24.944 95.5425 25.272C95.1665 25.592 94.9385 25.988 94.8585 26.46ZM101.793 29.232C101.233 28.632 100.953 27.888 100.953 27C100.953 26.112 101.233 25.372 101.793 24.78C102.353 24.18 103.033 23.88 103.833 23.88C104.337 23.88 104.765 23.976 105.117 24.168C105.469 24.36 105.721 24.564 105.873 24.78L105.981 24.96H105.993V24H106.953V32.28H101.793V31.38H105.993V29.04H105.981L105.873 29.208C105.729 29.424 105.481 29.632 105.129 29.832C104.777 30.024 104.345 30.12 103.833 30.12C103.033 30.12 102.353 29.824 101.793 29.232ZM102.489 25.404C102.105 25.82 101.913 26.352 101.913 27C101.913 27.648 102.105 28.18 102.489 28.596C102.881 29.012 103.369 29.22 103.953 29.22C104.537 29.22 105.021 29.012 105.405 28.596C105.797 28.18 105.993 27.648 105.993 27C105.993 26.352 105.797 25.82 105.405 25.404C105.021 24.988 104.537 24.78 103.953 24.78C103.369 24.78 102.881 24.988 102.489 25.404ZM108.637 30V24H109.597V24.96H109.609C109.721 24.76 109.857 24.592 110.017 24.456C110.409 24.112 110.889 23.94 111.457 23.94H112.177V24.9H111.457C110.913 24.9 110.465 25.076 110.113 25.428C109.769 25.772 109.597 26.216 109.597 26.76V30H108.637ZM113.675 29.232C113.115 28.632 112.835 27.888 112.835 27C112.835 26.112 113.115 25.372 113.675 24.78C114.235 24.18 114.915 23.88 115.715 23.88C116.219 23.88 116.643 23.976 116.987 24.168C117.339 24.36 117.595 24.568 117.755 24.792L117.863 24.972H117.875V24H118.835V30H117.875V29.04H117.863L117.755 29.208C117.611 29.424 117.363 29.632 117.011 29.832C116.659 30.024 116.227 30.12 115.715 30.12C114.915 30.12 114.235 29.824 113.675 29.232ZM114.371 25.404C113.987 25.82 113.795 26.352 113.795 27C113.795 27.648 113.987 28.18 114.371 28.596C114.763 29.012 115.251 29.22 115.835 29.22C116.419 29.22 116.903 29.012 117.287 28.596C117.679 28.18 117.875 27.648 117.875 27C117.875 26.352 117.679 25.82 117.287 25.404C116.903 24.988 116.419 24.78 115.835 24.78C115.251 24.78 114.763 24.988 114.371 25.404ZM120.52 30V24H121.48V24.9H121.492C121.596 24.716 121.744 24.548 121.936 24.396C122.376 24.052 122.884 23.88 123.46 23.88C124.06 23.88 124.56 24.08 124.96 24.48C125.136 24.656 125.276 24.856 125.38 25.08H125.44C125.56 24.872 125.728 24.672 125.944 24.48C126.408 24.08 126.98 23.88 127.66 23.88C128.308 23.88 128.84 24.112 129.256 24.576C129.672 25.04 129.88 25.668 129.88 26.46V30H128.92V26.52C128.92 25.96 128.788 25.532 128.524 25.236C128.268 24.932 127.92 24.78 127.48 24.78C127 24.78 126.58 24.964 126.22 25.332C125.86 25.7 125.68 26.136 125.68 26.64V30H124.72V26.52C124.72 25.96 124.588 25.532 124.324 25.236C124.068 24.932 123.72 24.78 123.28 24.78C122.8 24.78 122.38 24.964 122.02 25.332C121.66 25.7 121.48 26.136 121.48 26.64V30H120.52ZM131.38 27.18V26.22H135.7V27.18H131.38ZM137.266 30V24H138.226V26.4H139.426L141.346 24H142.486L140.266 26.82L142.666 30H141.466L139.426 27.3H138.226V30H137.266ZM143.816 29.232C143.256 28.632 142.976 27.888 142.976 27C142.976 26.112 143.256 25.372 143.816 24.78C144.376 24.18 145.056 23.88 145.856 23.88C146.36 23.88 146.784 23.976 147.128 24.168C147.48 24.36 147.736 24.568 147.896 24.792L148.004 24.972H148.016V24H148.976V30H148.016V29.04H148.004L147.896 29.208C147.752 29.424 147.504 29.632 147.152 29.832C146.8 30.024 146.368 30.12 145.856 30.12C145.056 30.12 144.376 29.824 143.816 29.232ZM144.512 25.404C144.128 25.82 143.936 26.352 143.936 27C143.936 27.648 144.128 28.18 144.512 28.596C144.904 29.012 145.392 29.22 145.976 29.22C146.56 29.22 147.044 29.012 147.428 28.596C147.82 28.18 148.016 27.648 148.016 27C148.016 26.352 147.82 25.82 147.428 25.404C147.044 24.988 146.56 24.78 145.976 24.78C145.392 24.78 144.904 24.988 144.512 25.404ZM150.66 30V24H151.62V26.46H154.98V24H155.94V30H154.98V27.36H151.62V30H150.66ZM158.101 29.232C157.541 28.632 157.261 27.888 157.261 27C157.261 26.112 157.541 25.372 158.101 24.78C158.661 24.18 159.341 23.88 160.141 23.88C160.645 23.88 161.069 23.976 161.413 24.168C161.765 24.36 162.021 24.568 162.181 24.792L162.289 24.972H162.301V24H163.261V30H162.301V29.04H162.289L162.181 29.208C162.037 29.424 161.789 29.632 161.437 29.832C161.085 30.024 160.653 30.12 160.141 30.12C159.341 30.12 158.661 29.824 158.101 29.232ZM158.797 25.404C158.413 25.82 158.221 26.352 158.221 27C158.221 27.648 158.413 28.18 158.797 28.596C159.189 29.012 159.677 29.22 160.261 29.22C160.845 29.22 161.329 29.012 161.713 28.596C162.105 28.18 162.301 27.648 162.301 27C162.301 26.352 162.105 25.82 161.713 25.404C161.329 24.988 160.845 24.78 160.261 24.78C159.677 24.78 159.189 24.988 158.797 25.404ZM164.225 30L165.905 24H168.425L170.105 30H169.085L167.705 24.9H166.625L165.245 30H164.225Z" fill="white"/>
<defs>
<clipPath id="clip0_475_204">
<rect width="40" height="40" fill="white"/>
</clipPath>
</defs>
</svg>
